<svg width="512" height="512" viewBox="0 0 512 512" xmlns="http://www.w3.org/2000/svg" role="img" aria-label="GitHub">

 <g>
  <title>Layer 1</title>
  <path id="svg_1" d="m32,0l448,0a32,32 0 0 1 32,32l0,448a32,32 0 0 1 -32,32l-448,0a32,32 0 0 1 -32,-32l0,-448a32,32 0 0 1 32,-32zm303,499c14,0 12,17 12,17l-182,0s-2,-17 12,-17c13,0 16,-6 16,-12l-1,-50c-71,16 -86,-28 -86,-28c-12,-30 -28,-37 -28,-37c-24,-16 1,-16 1,-16c26,2 40,26 40,26c22,39 59,28 74,22c2,-17 9,-28 16,-35c-57,-6 -116,-28 -116,-126c0,-28 10,-51 26,-69c-3,-6 -11,-32 3,-67c0,0 21,-7 70,26c42,-12 86,-12 128,0c49,-33 70,-26 70,-26c14,35 6,61 3,67c16,18 26,41 26,69c0,98 -60,120 -117,126c10,8 18,24 18,48l-1,70c0,6 3,12 16,12z" fill-rule="evenodd" fill="currentColor"/>
  <path id="svg_2" d="m187,487l160,0l20,47l-220,-13l13,-32l27,-2z" opacity="NaN" fill="currentColor"/>
  <path d="m197,527.5c0,0 0,0 0,0c0,0 0,0 0,0c0,-1 -1,-1 -1,-1c0,0 0,0 0,0c0,0 0,0 -1,-1c0,0 0,0 0,0c0,0 0,0 0,0c-1,0 -1,0 -1,0c0,-1 0,-1 0,-1c0,0 0,0 0,0c0,0 0,0 -1,0c0,0 0,0 0,0c0,0 0,0 0,0c0,-1 0,-1 0,-1c0,0 0,0 0,0c0,0 -1,0 -1,0c0,0 0,0 0,0c0,0 0,0 0,0c0,0 0,0 0,0c0,0 0,0 0,0c0,0 0,0 0,0c1,0 1,0 1,0c1,0 0.29289,0.29291 1,1c0.70711,0.70709 1,0 1,0c0,0 0,0 0,0c0,0 0,0 0,0c0,0 0,0 0,0c1,0 1,1 1,1c0,0 0,0 0,0c0,0 0,0 0,0c1,0 1,0 1,0c0,0 -1,0 -1,0c0,-1 0,-1 0,-1c-1,0 -1,-1 -1,-1c0,0 0,0 -1,0c0,0 0,-1 0,-1c0,0 0,0 0,0c-1,0 -1,-1 -1,-1c0,0 0,0 0,0c0,0 0,0 0,0c0,0 0,0 0,0c0,0 0,0 1,0c0,0 0,0 0,0c1,0 1,0 1,0l0,0l0,0" id="svg_3" fill="none"/>
  <path d="m195,521.34998c0,0 0,0 1,0c0,0 0,0 0,0c1,1 1,1 1,1c0,0 0,0 1,0c0,0 0,0 0,0c0,0 0,0 0,1c0,0 0,0 1,0c0,0 -0.70711,0.29291 0,1c0.70711,0.70709 1,0 1,0c0,1 1,1 1,1c0,0 0,0 0,0c0,1 0,1 0,1c0,0 0,0 1,0c0,0 0,0 1,0c0,0 0.29289,0.29291 1,1c0.70711,0.70709 2,0 2,0c1,1 1.29289,1.29291 2,2c0.70711,0.70709 2,1 3,3c1,2 3,4 4,6l1,3l1,2l1,2" id="svg_4" fill="none"/>
  <path d="m228,500.35001c1,0 1,0 1,0c1,0 2.02675,0.22977 3,0c2.17625,-0.51373 3.186,-0.69254 5,-2c1.14726,-0.8269 3.07843,-1.78986 6,-3c2.06586,-0.85571 3.186,-1.69254 5,-3c1.14726,-0.8269 2.07613,-1.61731 3,-2c1.30656,-0.5412 2,-1 3,-2c0,0 0,-1 1,-1l0,0" id="svg_5" fill="#000000"/>
  <path d="m249,422.35001c1,1 2,1 5,1c4,0 12,0 17,0c6,0 12,0 18,0c5,0 11,0 16,0c3,0 6,0 10,0c3,0 6,0 8,0c2,0 3,0 3,0l0,0l1,0" id="svg_6" fill="none"/>
  <path d="m200,266.35001c1,1 1,1 3,1c5,0 8.05165,-0.64072 12,0c3.12144,0.50653 7.08743,2.79395 12,5c4.07967,1.83203 8.19577,3.64886 12,6c4.25325,2.62866 7,5 10,7l3,2" id="svg_7" fill="none"/>
  <path d="m223,469.35001c0,1 1,1 2,1c1,0 2,0 3,0c2,0 3,0 4,0c1,0 1,0 1,0c1,0 1,0 1,0c1,0 1,0 1,0c1,0 1,0 2,0c2,0 3,0 5,0c2,0 4,0 6,0c3,0 5.02675,0.22977 6,0c2.17624,-0.51373 4.0535,-0.5405 6,-1c2.17624,-0.51373 3.69345,-1.4588 5,-2c0.92389,-0.38269 1,0 2,0c0,0 0,0 0,0c0,-1 0,-1 1,-2c0,0 -0.30746,-1.186 1,-3c0.8269,-1.14728 1.67963,-3.02582 2,-5c0.50653,-3.12143 1.67963,-5.02582 2,-7c0.50653,-3.12143 0.51944,-5.03873 1,-8c0.50653,-3.12143 1,-6 1,-10c0,-5 0,-9 0,-13c0,-3 0,-5 0,-9c0,-3 -0.23462,-5.15225 -1,-7c-0.5412,-1.30655 -1,-2 -1,-3l-1,0l0,-1" id="svg_9" fill="none"/>
  <polyline stroke-linecap="round" id="svg_10" points="-8,616.5 -9,616.5 " fill="none"/>
 </g>
</svg>
