<svg xmlns="http://www.w3.org/2000/svg" aria-label="LinkedIn" role="img" viewBox="0 0 64 64">
  <path fill="currentColor" fill-rule="evenodd"
    d="
      M4,0 h56 a4,4 0 0 1 4,4 v56 a4,4 0 0 1 -4,4 h-56 a4,4 0 0 1 -4,-4 v-56 a4,4 0 0 1 4,-4 z
      M8.99,23.54 h9.03 v32.72 h-9.03 z
      M13.5,7.74 a5.64,5.64 0 1 1 0,11.28 a5.64,5.64 0 1 1 0,-11.28 z
      M34.66,27.7 V23.54 h-9 V56.26 h9 V39
      a8.45,8.45 0,0,1,2.23-5.92
      a4.75,4.75 0,0,1,3.41-1.67
      A5.42,5.42 0,0,1,44.24,33
      a6.13,6.13 0,0,1,1.7,4.35V56.26H56.1V36
      S57.23,26.92,48.2,23.54
      C41.54,21,36.72,25.3,34.66,27.7z"
  />
</svg>
