<?xml version="1.0" encoding="utf-8"?>
<!-- Generator: Adobe Adobe Illustrator 24.2.0, SVG Export Plug-In . SVG Version: 6.00 Build 0)  -->
<svg version="1.1" xmlns="http://www.w3.org/2000/svg" xmlns:xlink="http://www.w3.org/1999/xlink" x="0px" y="0px" width="1760px"
	 height="880px" viewBox="0 0 1760 880" style="enable-background:new 0 0 1760 880;" xml:space="preserve">
<style type="text/css">
	.st0{display:none;}
	.st1{display:inline;fill:#FEFDF9;}
	.st2{display:inline;fill:#FEFDF9;stroke:#FF0000;stroke-miterlimit:10;}
	.st3{display:inline;fill:#4A5D41;}
	.st4{fill:#FEFDF9;}
	.st5{fill:#A55E3B;}
	.st6{fill:none;}
	.st7{font-family:'Futura-Medium';}
	.st8{font-size:382px;}
	.st9{letter-spacing:40;}
	.st10{fill:none;stroke:#2C2E28;stroke-width:18;stroke-miterlimit:10;}
	.st11{fill:none;stroke:#2C2E28;stroke-width:18;stroke-linecap:round;stroke-linejoin:round;stroke-miterlimit:10;}
</style>
<g id="Layer_4" class="st0">
	<rect x="0" class="st3" width="6000" height="880"/>
</g>
<g id="Layer_1">
	<g id="Layer_3_copy_3">
		<g>
			<g>
				<g>
					<!-- <path class="st4" d="M440,68.13C234.62,68.13,68.13,234.62,68.13,440S234.62,811.87,440,811.87S811.87,645.38,811.87,440 -->
					<!-- 	S645.38,68.13,440,68.13z M637.08,590.06H456.24v37.37c0,4.81,3.91,8.72,8.72,8.72h133.83c7.99,0.03,15.04,3.13,19.88,8.71 -->
					<!-- 	c4.22,4.87,6.54,11.32,6.53,18.16c-0.01,13.02-9.27,26.89-26.41,26.92l-335.42-0.36c-14.57-0.01-26.54-11.88-26.69-26.45 -->
					<!-- 	c-0.07-7.19,2.67-13.96,7.73-19.06c5.06-5.11,11.8-7.92,18.99-7.92h132.47c2.34,0,4.53-0.91,6.18-2.57 -->
					<!-- 	c1.65-1.65,2.55-3.85,2.54-6.19l-0.16-37.33H235.37c-36.13,0-65.53-29.4-65.53-65.53V255.59c0-36.13,29.4-65.53,65.53-65.53 -->
					<!-- 	h409.25c36.13,0,65.53,29.4,65.53,65.53v261.4C710.16,557.28,677.38,590.06,637.08,590.06z"/> -->
					<path class="st4" d="M438.24,627.43v-37.37h-15.81l0.16,37.26c0.03,7.16-2.73,13.89-7.78,18.97s-11.77,7.87-18.93,7.87H263.39
						c-2.34,0-4.54,0.92-6.19,2.58c-1.65,1.67-2.54,3.87-2.52,6.22c0.05,4.75,3.95,8.62,8.71,8.63l335.39,0.36
						c8.01-0.02,8.42-7.45,8.42-8.94c0-2.07-0.6-8.83-8.45-8.86h-133.8C450.22,654.15,438.24,642.16,438.24,627.43z"/>
					<path class="st4" d="M671.88,216.66c2.55,5.65,3.97,11.91,3.97,18.5v273.77c0,24.87-20.23,45.1-45.1,45.1H214.95
						c-7.23,0-14.07-1.71-20.13-4.75c8.36,13.65,23.41,22.77,40.56,22.77h401.71c30.37,0,55.07-24.71,55.07-55.07v-261.4
						C692.16,239.51,684.13,225.27,671.88,216.66z"/>
					<path class="st4" d="M214.95,536.04h415.79c14.94,0,27.1-12.16,27.1-27.1V235.16c0-14.94-12.16-27.1-27.1-27.1H235.63
						c-26.35,0-47.79,21.44-47.79,47.79v253.09C187.84,523.88,200,536.04,214.95,536.04z M323.9,408.12l15.44-9.25l29.23,48.83
						l29.38-48.83l15.42,9.28l-44.84,74.53L323.9,408.12z M496.09,509.41h-97.7v-18h39.85v-57.06h18v57.06h39.85V509.41z
						 M506.24,449.71l-58.11-102.15l-30.94,52.99l-15.54-9.08l46.69-79.96l73.55,129.29L506.24,449.71z M448.34,220.13l73.55,129.29
						l-15.65,8.9l-58.11-102.15l-30.94,52.99l-15.63-9.04L448.34,220.13z M339.3,306.36l29.35,49.82l29.26-49.83l15.42,9.28
						l-44.84,74.53l-44.63-74.56L339.3,306.36z"/>
				</g>
			</g>
		</g>
	</g>
	<path class="st5" d="M423.3,263.09c-35.34-24.9-84.03,3.53-83.97,43.38l29.31,49.71L423.3,263.09z"/>
	<rect x="862.64" y="296.89" class="st6" width="990" height="425.27"/>
	<text transform="matrix(1 0 0 1 862.6416 611.9222)" class="st4 st7 st8 st9">EML</text>
</g>
<g id="Layer_1_copy">
	<g id="Layer_3_copy_4">
	</g>
</g>
<g id="Layer_6">
</g>
</svg>
