<?xml version="1.0" encoding="utf-8"?>
<!-- Generator: Adobe Adobe Illustrator 24.2.0, SVG Export Plug-In . SVG Version: 6.00 Build 0)  -->
<svg version="1.1" xmlns="http://www.w3.org/2000/svg" xmlns:xlink="http://www.w3.org/1999/xlink" x="0px" y="0px" width="1200px"
	 height="1200px" viewBox="0 0 1200 1200" style="enable-background:new 0 0 1200 1200;" xml:space="preserve">
<style type="text/css">
	.st0{display:none;}
	.st1{display:inline;fill:#A55E3B;}
	.st2{display:inline;}
	.st3{fill:none;stroke:#2C2E28;stroke-width:18;stroke-miterlimit:10;}
	.st4{fill:none;stroke:#2C2E28;stroke-width:18;stroke-linecap:round;stroke-linejoin:round;stroke-miterlimit:10;}
	.st5{display:inline;fill:#F4F3F1;}
	.st6{display:inline;fill:#F4F3F1;stroke:#FF0000;stroke-miterlimit:10;}
	.st7{display:inline;fill:#4A5D41;}
	.st8{fill:none;stroke:#F4F3F1;stroke-width:18;stroke-miterlimit:10;}
	.st9{fill:none;}
	.st10{fill:#F4F3F1;}
	.st11{fill:#A55E3B;}
	.st12{fill:#F4F3F1;stroke:#F4F3F1;}
	.st13{display:none;fill:none;stroke:#000000;stroke-width:18;stroke-miterlimit:10;}
	.st14{fill:#2C2E28;stroke:#2C2E28;}
</style>
<g id="Layer_3_copy_5" class="st0">
</g>
<g id="Layer_4" class="st0">
	<rect x="0" class="st7" width="1200" height="1200"/>
</g>
<g id="Layer_1">
	<g>
		<g>
			<circle class="st8" cx="600" cy="600" r="567"/>
			<path id="SVGID_x5F_1_x5F_" class="st9" d="M198.69,654.51c-30.11-221.64,125.16-425.72,346.8-455.83s425.72,125.16,455.83,346.8
				c30.11,221.64-125.16,425.72-346.8,455.83C432.87,1031.42,228.79,876.15,198.69,654.51z"/>
			<text class="st0">			<textPath  xlink:href="#SVGID_x5F_1_x5F_" startOffset="0%"  class="st2">
<tspan  class="st12" style="font-family:'Futura-Medium'; font-size:168.4928px; letter-spacing:52;">ERIK • MARTIN • LARSSON • </tspan>			</textPath>
</text>
		</g>
	</g>
	<g id="Layer_3_copy_3">
		<g>
			<g>
				<g>
					<path class="st10" d="M600,228.13c-205.38,0-371.87,166.49-371.87,371.87S394.62,971.87,600,971.87S971.87,805.38,971.87,600
						S805.38,228.13,600,228.13z M797.08,750.06H616.24v37.37c0,4.81,3.91,8.72,8.72,8.72h133.83c7.99,0.03,15.04,3.13,19.88,8.71
						c4.22,4.87,6.54,11.32,6.53,18.16c-0.01,13.02-9.27,26.89-26.41,26.92l-335.42-0.36c-14.57-0.01-26.54-11.88-26.69-26.45
						c-0.07-7.19,2.67-13.96,7.73-19.06c5.06-5.11,11.8-7.92,18.99-7.92h132.47c2.34,0,4.53-0.91,6.18-2.57
						c1.65-1.65,2.55-3.85,2.54-6.19l-0.16-37.33H395.37c-36.13,0-65.53-29.4-65.53-65.53V415.59c0-36.13,29.4-65.53,65.53-65.53
						h409.25c36.13,0,65.53,29.4,65.53,65.53v261.4C870.16,717.28,837.38,750.06,797.08,750.06z"/>
					<path class="st10" d="M598.24,787.43v-37.37h-15.81l0.16,37.26c0.03,7.16-2.73,13.89-7.78,18.97s-11.77,7.87-18.93,7.87H423.39
						c-2.34,0-4.54,0.92-6.19,2.58c-1.65,1.67-2.54,3.87-2.52,6.22c0.05,4.75,3.95,8.62,8.71,8.63l335.39,0.36
						c8.01-0.02,8.42-7.45,8.42-8.94c0-2.07-0.6-8.83-8.45-8.86h-133.8C610.22,814.15,598.24,802.16,598.24,787.43z"/>
					<path class="st10" d="M831.88,376.66c2.55,5.65,3.97,11.91,3.97,18.5v273.77c0,24.87-20.23,45.1-45.1,45.1H374.95
						c-7.23,0-14.07-1.71-20.13-4.75c8.36,13.65,23.41,22.77,40.56,22.77h401.71c30.37,0,55.07-24.71,55.07-55.07v-261.4
						C852.16,399.51,844.13,385.27,831.88,376.66z"/>
					<path class="st10" d="M374.95,696.04h415.79c14.94,0,27.1-12.16,27.1-27.1V395.16c0-14.94-12.16-27.1-27.1-27.1H395.63
						c-26.35,0-47.79,21.44-47.79,47.79v253.09C347.84,683.88,360,696.04,374.95,696.04z M483.9,568.12l15.44-9.25l29.23,48.83
						l29.38-48.83l15.42,9.28l-44.84,74.53L483.9,568.12z M656.09,669.41h-97.7v-18h39.85v-57.06h18v57.06h39.85V669.41z
						 M666.24,609.71l-58.11-102.15l-30.94,52.99l-15.54-9.08l46.69-79.96l73.55,129.29L666.24,609.71z M608.34,380.13l73.55,129.29
						l-15.65,8.9l-58.11-102.15l-30.94,52.99l-15.63-9.04L608.34,380.13z M499.3,466.36l29.35,49.82l29.26-49.83l15.42,9.28
						l-44.84,74.53l-44.63-74.56L499.3,466.36z"/>
				</g>
			</g>
		</g>
	</g>
	<path class="st11" d="M583.3,423.09c-35.34-24.9-84.03,3.53-83.97,43.38l29.31,49.71L583.3,423.09z"/>
	<g>
		<g>
			<g>
				<circle class="st12" cx="1089.86" cy="698.15" r="20"/>
				<circle class="st12" cx="127.85" cy="698.15" r="20"/>
				<polygon class="st12" points="271.96,841.3 260.54,825.98 159,901.7 192.7,946.88 207.1,936.14 184.83,906.28 				"/>
				<path class="st12" d="M237.5,994.2l30.12-15.43l42.59,33.56l-8.6,32.39l16.43,12.95l35.83-143.15l-132.54,66.94L237.5,994.2z
					 M327.11,947.94l-11.9,45.45l-30.22-23.81L327.11,947.94z"/>
				<path class="st12" d="M438.59,974.13l-20.85-8.17l-46.24,117.92l17.79,6.98l18.93-48.27l3.21,1.26l14.75,61.47l21.77,8.53
					l-16.8-64.57c8.5,1.39,16.32,0.03,23.46-4.11c7.14-4.13,12.35-10.37,15.62-18.72c4.19-10.69,3.75-20.79-1.33-30.31
					C464.27,987.58,454.17,980.24,438.59,974.13z M452.81,1019.89c-5.05,12.88-16,16.02-32.85,9.41l-5.65-2.22l14.67-37.42
					l6.34,2.49C451.71,998.57,457.54,1007.82,452.81,1019.89z"/>
				<path class="st12" d="M542.42,1023.54c3.82-2.59,8.36-3.58,13.63-2.98c4.29,0.49,7.7,1.76,10.22,3.81
					c2.43,1.82,4.8,5.39,7.11,10.72l16.45-7.37c-6.54-15.06-17.06-23.42-31.56-25.08c-10.76-1.23-20.12,0.95-28.08,6.53
					c-7.95,5.53-12.47,13.02-13.55,22.48c-1.6,14.02,5.79,25.65,22.18,34.9l11.57,6.44c2.99,1.72,5.55,3.46,7.66,5.21
					c2.11,1.76,3.79,3.57,5.03,5.45c1.24,1.88,2.09,3.87,2.54,5.99c0.45,2.12,0.53,4.4,0.25,6.84c-0.7,6.09-3.23,10.89-7.59,14.41
					c-4.37,3.52-9.51,4.94-15.43,4.26c-7.5-0.86-12.89-4.23-16.18-10.11c-1.85-3.07-2.79-8.36-2.81-15.84l-19.72,2.04
					c0.4,11.93,3.73,21.54,10,28.8c6.38,7.28,15.03,11.54,25.95,12.79c11.52,1.32,21.6-1.38,30.24-8.1
					c8.58-6.67,13.53-15.79,14.85-27.37c0.99-8.64-0.54-16.2-4.59-22.69c-4.05-6.49-10.94-12.38-20.68-17.68l-11.96-6.57
					c-8.7-4.79-12.7-10.26-12-16.4C536.45,1029.58,538.61,1026.08,542.42,1023.54z"/>
				<path class="st12" d="M702.93,1063.8c-5.58-5.22-13.77-9.14-24.55-11.74l-13.26-3.26c-9.64-2.38-14.92-6.63-15.82-12.75
					c-0.66-4.43,0.53-8.37,3.56-11.81c3.02-3.49,7.15-5.62,12.4-6.4c4.27-0.63,7.89-0.29,10.85,1.04c2.82,1.13,6.04,3.97,9.64,8.52
					l13.99-11.36c-10.2-12.86-22.52-18.22-36.97-16.08c-10.71,1.59-19.19,6.11-25.44,13.56c-6.26,7.4-8.68,15.8-7.29,25.21
					c2.07,13.96,12.22,23.29,30.44,27.99l12.84,3.24c3.34,0.89,6.25,1.91,8.75,3.06c2.49,1.15,4.58,2.47,6.27,3.96
					c1.69,1.49,3.02,3.2,4,5.13c0.98,1.93,1.65,4.11,2.01,6.54c0.9,6.06-0.31,11.35-3.61,15.88c-3.31,4.53-7.91,7.23-13.81,8.1
					c-7.47,1.11-13.55-0.75-18.25-5.58c-2.58-2.49-4.85-7.35-6.81-14.58l-18.52,7.06c3.46,11.43,9.17,19.84,17.1,25.24
					c8.04,5.39,17.5,7.27,28.37,5.66c11.47-1.7,20.51-6.91,27.12-15.63c6.56-8.66,8.99-18.75,7.28-30.27
					C711.95,1075.94,708.52,1069.02,702.93,1063.8z"/>
				<path class="st12" d="M831.28,958.61c-17.32-5.77-34.04-4.63-50.19,3.44c-16.34,8.17-27.47,20.88-33.39,38.15
					c-5.97,17.29-4.97,33.91,3,49.86c9.07,18.15,22.81,29.62,41.23,34.42c16.7,4.31,32.37,2.81,47-4.5
					c16.53-8.26,27.8-21.01,33.79-38.26c5.97-17.17,4.88-33.9-3.26-50.19C861.37,975.33,848.64,964.36,831.28,958.61z
					 M855.07,1036.5c-4.06,12.3-12.04,21.42-23.92,27.36c-10.96,5.48-22.64,6.27-35.04,2.38c-12.45-3.87-21.8-12.06-28.06-24.58
					c-5.97-11.94-6.92-23.99-2.86-36.17c4.01-12.28,11.91-21.36,23.7-27.25c11.84-5.92,23.82-6.77,35.95-2.56
					c12.16,4.14,21.25,12.25,27.29,24.33C858.11,1011.93,859.09,1024.1,855.07,1036.5z"/>
				<polygon class="st12" points="937.61,834.69 924.65,848.74 989.37,908.4 855.72,910.82 955.18,1002.5 968.13,988.45 
					902.93,928.35 1036.41,925.76 				"/>
				<polygon class="st12" points="220.38,453.75 203.09,448.88 189.35,497.77 148.6,486.31 161.94,438.85 144.64,433.99 
					131.3,481.45 102,473.21 115.75,424.33 98.45,419.47 79.54,486.75 201.47,521.03 				"/>
				<path class="st12" d="M243.3,407.27l-44.58-26.47l1.76-2.96l63.05-4.64l11.94-20.1l-66.43,6.16c2.75-8.16,2.66-16.1-0.26-23.82
					c-2.92-7.71-8.24-13.86-15.95-18.44c-9.88-5.86-19.92-7.05-30.12-3.57c-9.21,3.19-18.08,11.97-26.62,26.36l-11.43,19.26
					l108.91,64.66L243.3,407.27z M187.5,367.09l-3.1,5.22l-34.56-20.52l3.48-5.85c8.99-15.14,19.06-19.4,30.2-12.79
					C195.41,340.21,196.74,351.52,187.5,367.09z"/>
				
					<rect x="245.73" y="219.58" transform="matrix(0.6777 -0.7354 0.7354 0.6777 -125.7577 278.9274)" class="st12" width="19.11" height="126.66"/>
				<polygon class="st12" points="351.36,279.6 321.44,236.56 322.43,231.08 392.04,251.33 413.06,236.72 326.21,212.67 
					340.51,132.9 319.56,147.46 307.91,217.09 279.08,175.6 263.38,186.51 335.66,290.51 				"/>
				<polygon class="st12" points="553.9,159.58 500.43,66.19 488.06,204.39 507.72,202.34 513.31,124.8 558.09,202.93 
					586.83,117.21 606.93,191.98 626.43,189.94 588.46,56.99 				"/>
				<path class="st12" d="M739.28,78.65L644.32,192.8l19.91,5.26l21.49-26.14l52.43,13.84l5,33.13l20.22,5.34L739.28,78.65z
					 M698,156.58l30.03-36.61l7.17,46.43L698,156.58z"/>
				<path class="st12" d="M826.36,202.72l2.93,1.81l3.5,63.12l19.88,12.3l-4.96-66.53c8.11,2.89,16.05,2.95,23.82,0.17
					c7.77-2.78,14.01-7.99,18.72-15.62c6.04-9.77,7.41-19.79,4.12-30.05c-3.02-9.26-11.64-18.29-25.88-27.09l-19.05-11.78
					l-66.62,107.72l16.26,10.05L826.36,202.72z M856.26,154.37l5.79,3.58c14.98,9.26,19.06,19.4,12.24,30.43
					c-7.28,11.77-18.61,12.89-34.01,3.37l-5.16-3.19L856.26,154.37z"/>
				<polygon class="st12" points="883.29,310.36 896.62,324.06 974.49,248.22 994.75,269.02 1007.62,256.49 953.7,201.13 
					940.83,213.67 961.15,234.53 				"/>
				
					<rect x="926.33" y="330.65" transform="matrix(0.832 -0.5548 0.5548 0.832 -22.4625 606.2387)" class="st12" width="126.66" height="19.11"/>
				<polygon class="st12" points="964.57,414.96 970.83,433.01 1054.61,403.96 993.81,522.81 1120.76,478.78 1114.5,460.72 
					1031.34,489.56 1092.37,370.63 				"/>
			</g>
		</g>
	</g>
</g>
<g id="Layer_1_copy">
	<g id="Layer_3_copy_4">
	</g>
</g>
</svg>
