<?xml version="1.0" encoding="utf-8"?>
<svg xmlns="http://www.w3.org/2000/svg"
     viewBox="-120 -120 1440 1440" /* bigger box avoids clipping */
     width="64" height="64">
  <!-- full-canvas white background (expanded with viewBox) -->
  <rect x="-120" y="-120" width="1440" height="1440" fill="#FEFDF9"/>

  <!-- your artwork -->
  <g>
    <path fill="#2C2E28" d="M600,228.13c-205.38,0-371.87,166.49-371.87,371.87S394.62,971.87,600,971.87S971.87,805.38,971.87,600
      S805.38,228.13,600,228.13z M797.08,750.06H616.24v37.37c0,4.81,3.91,8.72,8.72,8.72h133.83c7.99,0.03,15.04,3.13,19.88,8.71
      c4.22,4.87,6.54,11.32,6.53,18.16c-0.01,13.02-9.27,26.89-26.41,26.92l-335.42-0.36c-14.57-0.01-26.54-11.88-26.69-26.45
      c-0.07-7.19,2.67-13.96,7.73-19.06c5.06-5.11,11.8-7.92,18.99-7.92h132.47c2.34,0,4.53-0.91,6.18-2.57
      c1.65-1.65,2.55-3.85,2.54-6.19l-0.16-37.33H395.37c-36.13,0-65.53-29.4-65.53-65.53V415.59c0-36.13,29.4-65.53,65.53-65.53
      h409.25c36.13,0,65.53,29.4,65.53,65.53v261.4C870.16,717.28,837.38,750.06,797.08,750.06z"/>
    <path fill="#2C2E28" d="M598.24,787.43v-37.37h-15.81l0.16,37.26c0.03,7.16-2.73,13.89-7.78,18.97s-11.77,7.87-18.93,7.87H423.39
      c-2.34,0-4.54,0.92-6.19,2.58c-1.65,1.67-2.54,3.87-2.52,6.22c0.05,4.75,3.95,8.62,8.71,8.63l335.39,0.36
      c8.01-0.02,8.42-7.45,8.42-8.94c0-2.07-0.6-8.83-8.45-8.86h-133.8C610.22,814.15,598.24,802.16,598.24,787.43z"/>
    <path fill="#2C2E28" d="M831.88,376.66c2.55,5.65,3.97,11.91,3.97,18.5v273.77c0,24.87-20.23,45.1-45.1,45.1H374.95
      c-7.23,0-14.07-1.71-20.13-4.75c8.36,13.65,23.41,22.77,40.56,22.77h401.71c30.37,0,55.07-24.71,55.07-55.07v-261.4
      C852.16,399.51,844.13,385.27,831.88,376.66z"/>
    <path fill="#2C2E28" d="M374.95,696.04h415.79c14.94,0,27.1-12.16,27.1-27.1V395.16c0-14.94-12.16-27.1-27.1-27.1H395.63
      c-26.35,0-47.79,21.44-47.79,47.79v253.09C347.84,683.88,360,696.04,374.95,696.04z M483.9,568.12l15.44-9.25l29.23,48.83
      l29.38-48.83l15.42,9.28l-44.84,74.53L483.9,568.12z M656.09,669.41h-97.7v-18h39.85v-57.06h18v57.06h39.85V669.41z
      M666.24,609.71l-58.11-102.15l-30.94,52.99l-15.54-9.08l46.69-79.96l73.55,129.29L666.24,609.71z M608.34,380.13l73.55,129.29
      l-15.65,8.9l-58.11-102.15l-30.94,52.99l-15.63-9.04L608.34,380.13z M499.3,466.36l29.35,49.82l29.26-49.83l15.42,9.28
      l-44.84,74.53l-44.63-74.56L499.3,466.36z"/>
    <path fill="#A55E3B" d="M583.3,423.09c-35.34-24.9-84.03,3.53-83.97,43.38l29.31,49.71L583.3,423.09z"/>
  </g>
</svg>
